<svg xmlns="http://www.w3.org/2000/svg" width="960" height="580" viewBox="0 0 960 580" role="img" aria-labelledby="t">
<title id="t">Two tenants, one cluster</title>
<defs><marker id="ah16A34A" viewBox="0 0 10 10" refX="9" refY="5" markerWidth="7" markerHeight="7" orient="auto-start-reverse"><path d="M0,0 L10,5 L0,10 z" fill="#16A34A"/></marker><marker id="ah64748B" viewBox="0 0 10 10" refX="9" refY="5" markerWidth="7" markerHeight="7" orient="auto-start-reverse"><path d="M0,0 L10,5 L0,10 z" fill="#64748B"/></marker><marker id="ahDC2626" viewBox="0 0 10 10" refX="9" refY="5" markerWidth="7" markerHeight="7" orient="auto-start-reverse"><path d="M0,0 L10,5 L0,10 z" fill="#DC2626"/></marker></defs>
<rect x="0.5" y="0.5" width="959" height="579" rx="14" fill="#FFFFFF" stroke="#E2E8F0"/>
<text x="32" y="44" font-family="'Segoe UI', 'Helvetica Neue', Helvetica, Arial, sans-serif" font-size="21" font-weight="700" fill="#0F172A">Two tenants, one cluster</text>
<text x="32" y="68" font-family="'Segoe UI', 'Helvetica Neue', Helvetica, Arial, sans-serif" font-size="13.5" fill="#64748B">Cilium puts a wall between tenant namespaces on every node</text>
<rect x="24" y="88" width="696" height="468" rx="14" fill="#FFFFFF" stroke="#94A3B8" stroke-width="1.5" stroke-dasharray="6 4"/>
<text x="44" y="112" font-family="'Segoe UI', 'Helvetica Neue', Helvetica, Arial, sans-serif" font-size="12" font-weight="600" fill="#64748B" text-anchor="start">Kubernetes cluster  ·  shared nodes, shared kernel</text>
<rect x="44" y="126" width="656" height="44" rx="8" fill="#ECFEFF" stroke="#67E8F9" stroke-width="1.5"/>
<text x="372" y="153" font-family="'Segoe UI', 'Helvetica Neue', Helvetica, Arial, sans-serif" font-size="13.5" font-weight="600" fill="#155E75" text-anchor="middle">Cilium on every node (eBPF)  ·  one platform-owned policy per tenant</text>
<rect x="44" y="192" width="270" height="200" rx="12" fill="#EFF6FF" stroke="#93C5FD" stroke-width="1.5"/>
<text x="62" y="220" font-family="'Segoe UI', 'Helvetica Neue', Helvetica, Arial, sans-serif" font-size="15" font-weight="700" fill="#1E40AF" text-anchor="start">namespace tenant-a</text>
<rect x="62" y="232" width="116" height="21.5" rx="10.75" fill="#DBEAFE"/>
<text x="70" y="246.5" font-family="Consolas, 'SFMono-Regular', 'Liberation Mono', Menlo, monospace" font-size="11.5" font-weight="600" fill="#1E40AF" text-anchor="start">label tenant=a</text>
<rect x="62" y="284" width="100" height="48" rx="8" fill="#FFFFFF" stroke="#93C5FD" stroke-width="1.5"/>
<text x="112" y="313" font-family="'Segoe UI', 'Helvetica Neue', Helvetica, Arial, sans-serif" font-size="13" font-weight="600" fill="#0F172A" text-anchor="middle">web</text>
<rect x="196" y="284" width="100" height="48" rx="8" fill="#FFFFFF" stroke="#93C5FD" stroke-width="1.5"/>
<text x="246" y="313" font-family="'Segoe UI', 'Helvetica Neue', Helvetica, Arial, sans-serif" font-size="13" font-weight="600" fill="#0F172A" text-anchor="middle">client</text>
<path d="M196,308 L165,308" fill="none" stroke="#16A34A" stroke-width="2" stroke-linejoin="round" marker-end="url(#ah16A34A)"/>
<g transform="translate(179,352) scale(0.9090909090909091)"><circle r="11" fill="#16A34A" stroke="#FFFFFF" stroke-width="2"/><path d="M-5,0.5 L-1.5,4 L5,-3.5" fill="none" stroke="#FFFFFF" stroke-width="2.4" stroke-linecap="round" stroke-linejoin="round"/></g>
<text x="179" y="378" font-family="'Segoe UI', 'Helvetica Neue', Helvetica, Arial, sans-serif" font-size="12" font-weight="600" fill="#166534" text-anchor="middle">allowed</text>
<rect x="430" y="192" width="270" height="200" rx="12" fill="#F5F3FF" stroke="#C4B5FD" stroke-width="1.5"/>
<text x="448" y="220" font-family="'Segoe UI', 'Helvetica Neue', Helvetica, Arial, sans-serif" font-size="15" font-weight="700" fill="#5B21B6" text-anchor="start">namespace tenant-b</text>
<rect x="448" y="232" width="116" height="21.5" rx="10.75" fill="#EDE9FE"/>
<text x="456" y="246.5" font-family="Consolas, 'SFMono-Regular', 'Liberation Mono', Menlo, monospace" font-size="11.5" font-weight="600" fill="#5B21B6" text-anchor="start">label tenant=b</text>
<rect x="448" y="284" width="100" height="48" rx="8" fill="#FFFFFF" stroke="#C4B5FD" stroke-width="1.5"/>
<text x="498" y="313" font-family="'Segoe UI', 'Helvetica Neue', Helvetica, Arial, sans-serif" font-size="13" font-weight="600" fill="#0F172A" text-anchor="middle">web</text>
<rect x="582" y="284" width="100" height="48" rx="8" fill="#FFFFFF" stroke="#C4B5FD" stroke-width="1.5"/>
<text x="632" y="313" font-family="'Segoe UI', 'Helvetica Neue', Helvetica, Arial, sans-serif" font-size="13" font-weight="600" fill="#0F172A" text-anchor="middle">client</text>
<path d="M582,308 L551,308" fill="none" stroke="#16A34A" stroke-width="2" stroke-linejoin="round" marker-end="url(#ah16A34A)"/>
<g transform="translate(565,352) scale(0.9090909090909091)"><circle r="11" fill="#16A34A" stroke="#FFFFFF" stroke-width="2"/><path d="M-5,0.5 L-1.5,4 L5,-3.5" fill="none" stroke="#FFFFFF" stroke-width="2.4" stroke-linecap="round" stroke-linejoin="round"/></g>
<text x="565" y="378" font-family="'Segoe UI', 'Helvetica Neue', Helvetica, Arial, sans-serif" font-size="12" font-weight="600" fill="#166534" text-anchor="middle">allowed</text>
<path d="M318,300 L426,300" fill="none" stroke="#DC2626" stroke-width="2" stroke-linejoin="round" stroke-dasharray="6 4" marker-end="url(#ahDC2626)" marker-start="url(#ahDC2626)"/>
<g transform="translate(372,300) scale(1.1818181818181819)"><circle r="11" fill="#DC2626" stroke="#FFFFFF" stroke-width="2"/><path d="M-4,-4 L4,4 M4,-4 L-4,4" fill="none" stroke="#FFFFFF" stroke-width="2.4" stroke-linecap="round"/></g>
<text x="372" y="336" font-family="'Segoe UI', 'Helvetica Neue', Helvetica, Arial, sans-serif" font-size="13" font-weight="700" fill="#991B1B" text-anchor="middle">denied</text>
<text x="372" y="354" font-family="'Segoe UI', 'Helvetica Neue', Helvetica, Arial, sans-serif" font-size="12" font-weight="400" fill="#991B1B" text-anchor="middle">both ways</text>
<rect x="262" y="450" width="220" height="80" rx="10" fill="#F8FAFC" stroke="#CBD5E1" stroke-width="1.5"/>
<text x="278" y="472" font-family="'Segoe UI', 'Helvetica Neue', Helvetica, Arial, sans-serif" font-size="11.5" font-weight="400" fill="#64748B" text-anchor="start">kube-system</text>
<text x="278" y="494" font-family="'Segoe UI', 'Helvetica Neue', Helvetica, Arial, sans-serif" font-size="14" font-weight="700" fill="#334155" text-anchor="start">CoreDNS (shared)</text>
<text x="278" y="514" font-family="'Segoe UI', 'Helvetica Neue', Helvetica, Arial, sans-serif" font-size="11.5" font-weight="400" fill="#475569" text-anchor="start">Cilium filters every query</text>
<path d="M180,392 L180,489 L258,489" fill="none" stroke="#64748B" stroke-width="2" stroke-linejoin="round" marker-end="url(#ah64748B)"/>
<path d="M564,392 L564,489 L486,489" fill="none" stroke="#64748B" stroke-width="2" stroke-linejoin="round" marker-end="url(#ah64748B)"/>
<text x="60" y="432" font-family="'Segoe UI', 'Helvetica Neue', Helvetica, Arial, sans-serif" font-size="11.5" font-weight="600" fill="#1E40AF" text-anchor="start">DNS: only</text>
<text x="60" y="449" font-family="'Segoe UI', 'Helvetica Neue', Helvetica, Arial, sans-serif" font-size="11.5" font-weight="600" fill="#1E40AF" text-anchor="start">*.tenant-a names</text>
<text x="576" y="432" font-family="'Segoe UI', 'Helvetica Neue', Helvetica, Arial, sans-serif" font-size="11.5" font-weight="600" fill="#5B21B6" text-anchor="start">DNS: only</text>
<text x="576" y="449" font-family="'Segoe UI', 'Helvetica Neue', Helvetica, Arial, sans-serif" font-size="11.5" font-weight="600" fill="#5B21B6" text-anchor="start">*.tenant-b names</text>
<rect x="736" y="88" width="200" height="468" rx="14" fill="#FFFFFF" stroke="#CBD5E1" stroke-width="1.5"/>
<text x="752" y="116" font-family="'Segoe UI', 'Helvetica Neue', Helvetica, Arial, sans-serif" font-size="14" font-weight="700" fill="#0F172A" text-anchor="start">Leaving the cluster</text>
<text x="752" y="134" font-family="'Segoe UI', 'Helvetica Neue', Helvetica, Arial, sans-serif" font-size="11.5" font-weight="400" fill="#64748B" text-anchor="start">per-tenant allowlist</text>
<g fill="none" stroke="#475569" stroke-width="2"><circle cx="836" cy="180" r="24"/><ellipse cx="836" cy="180" rx="10.8" ry="24"/><path d="M812,180 L860,180 M815.12,168.0 L856.88,168.0 M815.12,192.0 L856.88,192.0"/></g>
<rect x="752" y="226" width="168" height="62" rx="8" fill="#EFF6FF" stroke="#93C5FD" stroke-width="1.5"/>
<text x="764" y="251" font-family="'Segoe UI', 'Helvetica Neue', Helvetica, Arial, sans-serif" font-size="13" font-weight="700" fill="#1E40AF" text-anchor="start">tenant-a</text>
<text x="764" y="272" font-family="Consolas, 'SFMono-Regular', 'Liberation Mono', Menlo, monospace" font-size="11.5" font-weight="400" fill="#475569" text-anchor="start">example.com:443</text>
<g transform="translate(900,257) scale(0.9090909090909091)"><circle r="11" fill="#16A34A" stroke="#FFFFFF" stroke-width="2"/><path d="M-5,0.5 L-1.5,4 L5,-3.5" fill="none" stroke="#FFFFFF" stroke-width="2.4" stroke-linecap="round" stroke-linejoin="round"/></g>
<rect x="752" y="302" width="168" height="62" rx="8" fill="#F5F3FF" stroke="#C4B5FD" stroke-width="1.5"/>
<text x="764" y="327" font-family="'Segoe UI', 'Helvetica Neue', Helvetica, Arial, sans-serif" font-size="13" font-weight="700" fill="#5B21B6" text-anchor="start">tenant-b</text>
<text x="764" y="348" font-family="'Segoe UI', 'Helvetica Neue', Helvetica, Arial, sans-serif" font-size="11.5" font-weight="400" fill="#475569" text-anchor="start">nothing</text>
<g transform="translate(900,333) scale(0.9090909090909091)"><circle r="11" fill="#DC2626" stroke="#FFFFFF" stroke-width="2"/><path d="M-4,-4 L4,4 M4,-4 L-4,4" fill="none" stroke="#FFFFFF" stroke-width="2.4" stroke-linecap="round"/></g>
<rect x="752" y="378" width="168" height="62" rx="8" fill="#F8FAFC" stroke="#CBD5E1" stroke-width="1.5"/>
<text x="764" y="403" font-family="'Segoe UI', 'Helvetica Neue', Helvetica, Arial, sans-serif" font-size="13" font-weight="700" fill="#334155" text-anchor="start">Kubernetes API</text>
<text x="764" y="424" font-family="'Segoe UI', 'Helvetica Neue', Helvetica, Arial, sans-serif" font-size="11.5" font-weight="400" fill="#475569" text-anchor="start">both tenants</text>
<g transform="translate(900,409) scale(0.9090909090909091)"><circle r="11" fill="#DC2626" stroke="#FFFFFF" stroke-width="2"/><path d="M-4,-4 L4,4 M4,-4 L-4,4" fill="none" stroke="#FFFFFF" stroke-width="2.4" stroke-linecap="round"/></g>
<text x="752" y="480" font-family="'Segoe UI', 'Helvetica Neue', Helvetica, Arial, sans-serif" font-size="11.5" font-weight="400" fill="#64748B" text-anchor="start">Anything not listed</text>
<text x="752" y="497" font-family="'Segoe UI', 'Helvetica Neue', Helvetica, Arial, sans-serif" font-size="11.5" font-weight="400" fill="#64748B" text-anchor="start">is dropped.</text>
</svg>
